<?xml version="1.0" encoding="utf-8"?>
<!-- Generator: Adobe Illustrator 15.0.0, SVG Export Plug-In  -->
<!DOCTYPE svg PUBLIC "-//W3C//DTD SVG 1.1//EN" "http://www.w3.org/Graphics/SVG/1.1/DTD/svg11.dtd" [
	<!ENTITY ns_flows "http://ns.adobe.com/Flows/1.0/">
]>
<svg version="1.1"
	 xmlns="http://www.w3.org/2000/svg" xmlns:xlink="http://www.w3.org/1999/xlink" xmlns:a="http://ns.adobe.com/AdobeSVGViewerExtensions/3.0/"
	 x="0px" y="0px" width="100px" height="100px" viewBox="0 0 100 100" overflow="visible" enable-background="new 0 0 100 100"
	 xml:space="preserve">
<defs>
</defs>
<path fill="#5F5F5E" d="M72.858,0L72.858,0l-0.001,0.018L72.854,0l0,0C58.092,0,46.127,11.964,46.127,26.728
	c0,8.676,4.898,13.739,10.555,21.243l16.171,19.084v-0.002l0.003-0.006v0.006l0.001,0.002l16.171-19.084
	c5.656-7.504,10.552-12.567,10.552-21.243C99.581,11.964,87.619,0,72.858,0z"/>
<path fill="#FFFFFF" d="M66.471,30.626c0,5.006,2.115,7.261,9.083,7.261c3.076,0,6.584-0.434,9.082-0.865
	c0.722-0.145,1.25-0.045,1.25,0.818v4.132c0,0.627-0.096,0.865-0.912,1.056c-1.634,0.384-6.007,0.819-10.526,0.819
	c-13.65,0-16.195-4.954-16.195-13.268v-9.418c0-9.228,5.479-12.686,15.089-12.686c3.46,0,9.949,0.29,11.293,0.718
	c0.385,0.147,0.483,0.29,0.483,0.676l-0.388,8.792c0,0.48-0.286,0.675-0.767,0.675h-3.65c-0.434,0-0.628-0.243-0.725-0.675
	l-0.862-4.371c-1.01-0.147-2.887-0.29-5.336-0.29c-5.477,0-6.968,3.602-6.968,7.066L66.471,30.626z"/>
<path fill="#010202" d="M35.071,12.025h-0.002v0.023l-0.003-0.023l0,0C15.7,12.025,0,27.723,0,47.092
	c0,11.382,6.426,18.025,13.849,27.872l21.217,25.036v-0.002l0.003-0.01v0.01l0.002,0.002l21.216-25.036
	c7.422-9.847,13.845-16.489,13.845-27.872C70.132,27.723,54.435,12.025,35.071,12.025z"/>
<path fill="#FFFFFF" d="M26.691,52.208c0,6.567,2.775,9.525,11.917,9.525c4.037,0,8.639-0.568,11.915-1.134
	c0.949-0.19,1.641-0.061,1.641,1.072v5.422c0,0.823-0.125,1.135-1.197,1.385c-2.145,0.504-7.88,1.075-13.81,1.075
	c-17.909,0-21.248-6.498-21.248-17.406V39.789c0-12.106,7.188-16.643,19.798-16.643c4.539,0,13.053,0.38,14.815,0.942
	c0.506,0.192,0.634,0.38,0.634,0.887L50.647,36.51c0,0.631-0.375,0.886-1.006,0.886h-4.79c-0.568,0-0.825-0.318-0.95-0.886
	l-1.132-5.734c-1.325-0.193-3.788-0.38-7-0.38c-7.186,0-9.142,4.726-9.142,9.271L26.691,52.208z"/>
</svg>
