<?xml version="1.0" encoding="utf-8"?>
<!-- Generator: Adobe Illustrator 15.0.0, SVG Export Plug-In  -->
<!DOCTYPE svg PUBLIC "-//W3C//DTD SVG 1.1//EN" "http://www.w3.org/Graphics/SVG/1.1/DTD/svg11.dtd" [
	<!ENTITY ns_flows "http://ns.adobe.com/Flows/1.0/">
]>
<svg version="1.1"
	 xmlns="http://www.w3.org/2000/svg" xmlns:xlink="http://www.w3.org/1999/xlink" xmlns:a="http://ns.adobe.com/AdobeSVGViewerExtensions/3.0/"
	 x="0px" y="0px" width="315px" height="40px" viewBox="-3.65 0.003 315 40"
	 overflow="visible" enable-background="new -3.65 0.003 315 40" xml:space="preserve">
<defs>
</defs>
<path d="M6.55,25.102c0,5.9,2.25,8.9,10.051,8.9c2.95,0,6.2-0.35,9.55-0.899c0.7-0.15,1.1,0,1.1,0.8v2.95
	c0,0.65-0.05,0.95-0.95,1.15c-1.85,0.399-6.05,0.85-10.4,0.85C2.7,38.853,0,33.752,0,25.052V15.001C0,6.301,5.1,2.05,14.751,2.05
	c4.25,0,9.601,0.35,11.25,0.9c0.35,0.1,0.45,0.25,0.45,0.6l-0.4,8.101c-0.05,0.55-0.35,0.7-0.85,0.7h-2.65
	c-0.45,0-0.65-0.2-0.75-0.7L21.051,7c-1.5-0.25-3.8-0.4-6.25-0.4c-6.351,0-8.301,4.15-8.301,8.301L6.55,25.102z"/>
<path d="M40.301,15.401c2.25-1.2,5.75-2.55,9.601-2.55c3.55,0,6.65,1.1,6.65,7.1v12.851c0,1.45,0.45,1.801,1.3,1.801
	c0.35,0,0.55,0,1.15-0.101c0.4-0.05,0.65,0,0.65,0.601v2.65c0,0.399-0.15,0.55-0.55,0.699c-0.65,0.2-1.95,0.351-3.601,0.351
	c-4.2,0-4.95-2.4-4.95-5.301V21.151c0-2.95-1.5-3.6-3.35-3.6c-1.9,0-4.4,0.699-6.9,1.899v13.551c0,1.15,0.15,1.351,1.5,1.5l0.9,0.15
	c0.35,0.05,0.5,0.25,0.5,0.65v2.5c0,0.3-0.2,0.55-0.6,0.55H31.95c-0.4,0-0.55-0.2-0.55-0.55v-2.45c0-0.45,0.15-0.65,0.5-0.7
	l0.9-0.15c1.2-0.149,1.5-0.399,1.5-1.649V6.4c0-1.35-0.2-1.5-1.35-1.65L32,4.601c-0.6-0.1-0.65-0.25-0.65-0.8V1.75
	c0-0.5,0.15-0.65,0.65-0.7l3.851-0.65c1.5-0.25,2.45-0.4,3.2-0.4c0.95,0,1.25,0.55,1.25,1.2V15.401z"/>
<path d="M85.601,32.802c0,1.45,0.45,1.801,1.3,1.801c0.35,0,0.55,0,1.15-0.101c0.4-0.05,0.65,0,0.65,0.601v2.65
	c0,0.399-0.15,0.55-0.55,0.699c-0.65,0.2-1.95,0.351-3.6,0.351c-2.2,0-3.45-0.65-4.15-1.7c-1.7,0.85-4.6,1.75-8.201,1.75
	c-7.5,0-8.55-3.4-8.55-7.2v-1c0-3.95,1.15-7.301,9.5-7.301c2.65,0,5,0.15,6.451,0.3v-2.55c0-3.25-0.85-4.2-4.701-4.2
	c-1.7,0-3.65,0.05-4.85,0.25l-0.8,3.7c-0.1,0.55-0.2,0.7-0.65,0.7h-2.55c-0.45,0-0.6-0.15-0.65-0.7l-0.35-6.051
	c-0.05-0.85-0.1-1.149,0.5-1.35c1-0.3,5.701-0.6,9.401-0.6c6.65,0,10.65,0.85,10.65,8.35V32.802z M69.65,31.702c0,2.4,1.4,3,4.05,3
	c2.05,0,3.65-0.399,5.9-1.35v-5.65c-2.2-0.101-3.8-0.15-5.701-0.15c-3.05,0-4.25,0.95-4.25,3.051V31.702z"/>
<path d="M93.65,17.501H91.3c-0.45,0-0.65-0.2-0.65-0.649v-2.851c0-0.45,0.2-0.65,0.65-0.65h1.3c2.55,0,3-3.5,3.55-5.25
	c0.3-0.75,0.75-0.85,1.3-0.85h1.6c0.45,0,0.65,0.2,0.65,0.65v5.45h5.25c0.45,0,0.65,0.2,0.65,0.65v2.851
	c0,0.449-0.2,0.649-0.65,0.649h-5.3v14.751c0,1.801,0.9,2.351,2.8,2.351c1.3,0,2.9-0.25,3.25-0.25c0.35-0.05,0.55,0.149,0.55,0.45
	v2.6c0,0.65-0.3,0.75-0.65,0.851c-0.85,0.25-2.8,0.6-5.25,0.6c-4.4,0-6.701-1.35-6.701-5.851V17.501z"/>
<path d="M111.25,17.501h-2.35c-0.45,0-0.65-0.2-0.65-0.649v-2.851c0-0.45,0.2-0.65,0.65-0.65h1.3c2.55,0,3-3.5,3.55-5.25
	c0.3-0.75,0.75-0.85,1.3-0.85h1.6c0.45,0,0.65,0.2,0.65,0.65v5.45h5.25c0.45,0,0.65,0.2,0.65,0.65v2.851
	c0,0.449-0.2,0.649-0.65,0.649h-5.3v14.751c0,1.801,0.9,2.351,2.8,2.351c1.3,0,2.9-0.25,3.25-0.25c0.35-0.05,0.55,0.149,0.55,0.45
	v2.6c0,0.65-0.3,0.75-0.65,0.851c-0.85,0.25-2.8,0.6-5.25,0.6c-4.4,0-6.701-1.35-6.701-5.851V17.501z"/>
<path d="M148.4,25.102c0,5.9,2.251,8.9,10.051,8.9c2.95,0,6.2-0.35,9.551-0.899c0.7-0.15,1.101,0,1.101,0.8v2.95
	c0,0.65-0.051,0.95-0.95,1.15c-1.851,0.399-6.051,0.85-10.401,0.85c-13.2,0-15.9-5.101-15.9-13.801V15.001
	c0-8.7,5.101-12.951,14.751-12.951c4.25,0,9.601,0.35,11.25,0.9c0.351,0.1,0.45,0.25,0.45,0.6l-0.399,8.101
	c-0.051,0.55-0.351,0.7-0.851,0.7h-2.65c-0.449,0-0.649-0.2-0.75-0.7L162.901,7c-1.5-0.25-3.8-0.4-6.25-0.4
	c-6.351,0-8.301,4.15-8.301,8.301L148.4,25.102z"/>
<path d="M193.352,14.151l-0.399,7.2c-0.051,0.55-0.251,0.7-0.7,0.7h-2.551c-0.45,0-0.7-0.15-0.8-0.7l-0.55-3.7
	c-1.55,0.1-3.65,0.9-5.551,2.25v13.101c0,0.95,0.45,1.351,1.5,1.45l2.9,0.2c0.4,0.05,0.5,0.3,0.5,0.75v2.45c0,0.3-0.149,0.5-0.5,0.5
	h-12.851c-0.35,0-0.45-0.2-0.45-0.5v-2.601c0-0.35,0.101-0.55,0.45-0.6l0.95-0.15c1.1-0.149,1.5-0.6,1.5-1.35V19.451
	c0-1.3-0.3-1.399-1.351-1.649l-1.05-0.15c-0.45-0.1-0.55-0.2-0.55-0.7v-2.05c0-0.5,0.1-0.7,0.75-0.801l3.75-0.6
	c1.05-0.15,1.95-0.3,2.65-0.3c1.45,0,1.8,0.75,1.8,1.85v0.851c2-1.551,4.851-3.05,8.001-3.05
	C192.602,12.851,193.452,13.051,193.352,14.151z"/>
<path d="M200.45,19.302c0-1.301-0.3-1.4-1.35-1.65l-1.05-0.15c-0.4-0.1-0.551-0.2-0.551-0.7v-2.05c0-0.5,0.101-0.7,0.751-0.8
	l3.75-0.601c1.05-0.149,1.95-0.3,2.7-0.3c1.399,0,1.75,0.75,1.75,1.851v17.9c0,1.45,0.45,1.801,1.3,1.801
	c0.351,0,0.601,0,1.15-0.101c0.45-0.05,0.649,0,0.649,0.601v2.65c0,0.399-0.149,0.55-0.55,0.699c-0.649,0.2-1.95,0.351-3.6,0.351
	c-4.2,0-4.951-2.4-4.951-5.301V19.302z M204.351,2.851c2.15,0,2.45,1.05,2.45,2.6v0.85c0,1.5-0.3,2.55-2.45,2.55h-2.05
	c-2.15,0-2.45-1.05-2.45-2.55v-0.75c0-1.55,0.3-2.7,2.45-2.7H204.351z"/>
<path d="M216.051,19.302c0-1.301-0.3-1.4-1.351-1.65l-1.05-0.15c-0.45-0.1-0.55-0.2-0.55-0.7v-2.05c0-0.5,0.1-0.7,0.75-0.8
	l3.75-0.601c1.05-0.149,1.95-0.3,2.65-0.3c1.4,0,1.75,0.7,1.8,1.75c1.75-0.85,4.551-1.95,8.301-1.95c2.45,0,4.601,0.55,5.851,2.6
	c1.95-1.05,5.15-2.6,9.25-2.6c4.051,0,7.251,1.25,7.251,7.85v12.101c0,1.45,0.45,1.801,1.3,1.801c0.351,0,0.601,0,1.15-0.101
	c0.45-0.05,0.649,0,0.649,0.601v2.65c0,0.399-0.149,0.55-0.55,0.699c-0.649,0.2-1.95,0.351-3.6,0.351
	c-4.201,0-4.951-2.4-4.951-5.301v-12.25c0-3.15-1.199-3.751-3.149-3.751c-1.801,0-3.351,0.15-6.251,1.601
	c0.05,0.55,0.101,1.149,0.101,1.75v12.15c0,1.15,0.149,1.351,1.5,1.5l0.95,0.15c0.35,0.05,0.449,0.25,0.449,0.65v2.5
	c0,0.3-0.149,0.55-0.55,0.55h-10.65c-0.4,0-0.601-0.2-0.601-0.55v-2.45c0-0.45,0.2-0.65,0.551-0.7l0.85-0.15
	c1.2-0.149,1.5-0.399,1.5-1.649V21.302c0-3.25-1.25-3.801-2.95-3.801c-1.649,0-2.75,0.15-6.4,1.7v13.801c0,1.15,0.15,1.351,1.5,1.5
	l0.9,0.15c0.35,0.05,0.5,0.25,0.5,0.65v2.5c0,0.3-0.2,0.55-0.6,0.55H213.7c-0.399,0-0.55-0.2-0.55-0.55v-2.45
	c0-0.45,0.15-0.65,0.5-0.7l0.9-0.15c1.2-0.149,1.5-0.399,1.5-1.649V19.302z"/>
<path d="M265.851,28.202v0.149c0,4.101,0.649,6.051,6.95,6.051c3.8,0,6.801-0.55,8.9-0.9c0.851-0.149,1-0.05,1,0.7v2.7
	c0,0.851-0.149,0.95-0.95,1.05c-1.5,0.301-6,0.9-10.25,0.9c-9.201,0-11.601-2.95-11.601-10.551v-5.351c0-8.55,4.5-10.1,11.801-10.1
	c7.05,0,10.65,1.35,10.65,7.8c0,6.5-3.4,7.551-11.351,7.551H265.851z M265.851,24.252h4.95c4.851,0,5.65-0.601,5.65-3.4
	c0-2.75-0.95-3.95-5-3.95c-4.301,0-5.601,1.25-5.601,5.851V24.252z"/>
<path d="M302.401,31.702c0-1.75-1.25-2.351-3-2.95c-1.75-0.5-5.9-1.5-7.851-2.2c-2.3-0.85-3.95-2.15-3.95-6.551
	c0-7.05,6.2-7.15,10.001-7.15c3.15,0,7.75,0.2,9.101,0.6c0.6,0.2,0.6,0.5,0.6,0.85l-0.399,5.851c-0.051,0.45-0.301,0.7-0.75,0.7
	h-2.051c-0.6,0-0.8-0.15-0.95-0.7l-0.7-3.05c-1.35-0.2-2.449-0.301-4.649-0.301c-3.051,0-4.601,0.45-4.601,2.801
	c0,2,1.05,2.7,2.75,3.25c1.101,0.4,6.65,1.7,8.351,2.3c2.65,0.95,3.8,2.9,3.8,6.001c0,6.05-4.2,7.601-10.75,7.601
	c-3.15,0-7.301-0.4-9.15-0.801c-0.65-0.149-0.801-0.25-0.801-0.85v-2.95c0-0.65,0.351-0.8,0.9-0.7c1.2,0.2,4.9,0.95,7.75,0.95
	C300.401,34.402,302.401,33.752,302.401,31.702z"/>
</svg>
